<mxfile host="app.diagrams.net" modified="2020-09-05T07:03:25.433Z" agent="5.0 (Windows NT 10.0; Win64; x64) AppleWebKit/537.36 (KHTML, like Gecko) Chrome/78.0.3904.108 Safari/537.36" etag="IPTt7O3-qpjqn_To0_sb" version="13.6.6" type="github" pages="3">
  <diagram id="xqP9yVKX-YAeiOFwIbXu" name="Page-1">
    <mxGraphModel dx="2036" dy="1796" grid="1" gridSize="10" guides="1" tooltips="1" connect="1" arrows="1" fold="1" page="1" pageScale="1" pageWidth="827" pageHeight="1169" math="0" shadow="0">
      <root>
        <mxCell id="0" />
        <mxCell id="1" parent="0" />
        <mxCell id="f8uX8n9HvfezP-yHLrGy-4" value="" style="rounded=0;orthogonalLoop=1;jettySize=auto;html=1;entryX=0.5;entryY=1;entryDx=0;entryDy=0;exitX=1;exitY=0;exitDx=0;exitDy=0;" parent="1" source="f8uX8n9HvfezP-yHLrGy-2" target="f8uX8n9HvfezP-yHLrGy-3" edge="1">
          <mxGeometry relative="1" as="geometry" />
        </mxCell>
        <mxCell id="H812tD_r6ef0jj8ggqGE-24" style="edgeStyle=none;rounded=0;orthogonalLoop=1;jettySize=auto;html=1;exitX=1;exitY=0.5;exitDx=0;exitDy=0;" parent="1" source="f8uX8n9HvfezP-yHLrGy-2" target="f8uX8n9HvfezP-yHLrGy-9" edge="1">
          <mxGeometry relative="1" as="geometry" />
        </mxCell>
        <mxCell id="f8uX8n9HvfezP-yHLrGy-2" value="Profile" style="rounded=0;whiteSpace=wrap;html=1;fillColor=#dae8fc;strokeColor=#6c8ebf;gradientColor=#7ea6e0;" parent="1" vertex="1">
          <mxGeometry x="-190" y="240" width="120" height="60" as="geometry" />
        </mxCell>
        <mxCell id="f8uX8n9HvfezP-yHLrGy-6" value="" style="rounded=0;orthogonalLoop=1;jettySize=auto;html=1;exitX=0.5;exitY=0;exitDx=0;exitDy=0;" parent="1" source="f8uX8n9HvfezP-yHLrGy-3" target="f8uX8n9HvfezP-yHLrGy-5" edge="1">
          <mxGeometry relative="1" as="geometry" />
        </mxCell>
        <mxCell id="H812tD_r6ef0jj8ggqGE-42" style="edgeStyle=none;rounded=0;orthogonalLoop=1;jettySize=auto;html=1;exitX=1;exitY=0.5;exitDx=0;exitDy=0;entryX=0;entryY=0.5;entryDx=0;entryDy=0;" parent="1" source="f8uX8n9HvfezP-yHLrGy-3" target="f8uX8n9HvfezP-yHLrGy-27" edge="1">
          <mxGeometry relative="1" as="geometry" />
        </mxCell>
        <mxCell id="o1f8s7yUzRyvdQg7i0tU-10" style="edgeStyle=none;rounded=0;orthogonalLoop=1;jettySize=auto;html=1;exitX=0;exitY=0.5;exitDx=0;exitDy=0;entryX=1;entryY=0.5;entryDx=0;entryDy=0;" parent="1" source="f8uX8n9HvfezP-yHLrGy-3" target="H812tD_r6ef0jj8ggqGE-55" edge="1">
          <mxGeometry relative="1" as="geometry" />
        </mxCell>
        <mxCell id="f8uX8n9HvfezP-yHLrGy-3" value="Has" style="rhombus;whiteSpace=wrap;html=1;rounded=0;fillColor=#cdeb8b;strokeColor=#36393d;" parent="1" vertex="1">
          <mxGeometry x="126" y="-20" width="80" height="80" as="geometry" />
        </mxCell>
        <mxCell id="f8uX8n9HvfezP-yHLrGy-8" value="" style="rounded=0;orthogonalLoop=1;jettySize=auto;html=1;exitX=0.5;exitY=1;exitDx=0;exitDy=0;entryX=0.5;entryY=0;entryDx=0;entryDy=0;" parent="1" source="f8uX8n9HvfezP-yHLrGy-2" target="f8uX8n9HvfezP-yHLrGy-7" edge="1">
          <mxGeometry relative="1" as="geometry" />
        </mxCell>
        <mxCell id="f8uX8n9HvfezP-yHLrGy-5" value="Login" style="whiteSpace=wrap;html=1;rounded=0;fillColor=#dae8fc;strokeColor=#6c8ebf;gradientColor=#7ea6e0;" parent="1" vertex="1">
          <mxGeometry x="106" y="-110" width="120" height="60" as="geometry" />
        </mxCell>
        <mxCell id="f8uX8n9HvfezP-yHLrGy-12" value="" style="rounded=0;orthogonalLoop=1;jettySize=auto;html=1;entryX=0.5;entryY=0;entryDx=0;entryDy=0;exitX=0.5;exitY=1;exitDx=0;exitDy=0;" parent="1" source="f8uX8n9HvfezP-yHLrGy-7" target="f8uX8n9HvfezP-yHLrGy-24" edge="1">
          <mxGeometry relative="1" as="geometry">
            <mxPoint x="480" y="520" as="targetPoint" />
          </mxGeometry>
        </mxCell>
        <mxCell id="f8uX8n9HvfezP-yHLrGy-7" value="Issue&lt;br&gt;or&lt;br&gt;Suggestions&lt;br&gt;" style="rhombus;whiteSpace=wrap;html=1;rounded=0;fillColor=#cdeb8b;strokeColor=#36393d;" parent="1" vertex="1">
          <mxGeometry x="-105" y="380" width="130" height="100" as="geometry" />
        </mxCell>
        <mxCell id="f8uX8n9HvfezP-yHLrGy-14" value="" style="rounded=0;orthogonalLoop=1;jettySize=auto;html=1;" parent="1" source="f8uX8n9HvfezP-yHLrGy-9" target="f8uX8n9HvfezP-yHLrGy-13" edge="1">
          <mxGeometry relative="1" as="geometry" />
        </mxCell>
        <mxCell id="f8uX8n9HvfezP-yHLrGy-9" value="Search_train" style="rhombus;whiteSpace=wrap;html=1;rounded=0;fillColor=#cdeb8b;strokeColor=#36393d;" parent="1" vertex="1">
          <mxGeometry x="286" y="230" width="80" height="80" as="geometry" />
        </mxCell>
        <mxCell id="f8uX8n9HvfezP-yHLrGy-16" value="" style="rounded=0;orthogonalLoop=1;jettySize=auto;html=1;" parent="1" source="f8uX8n9HvfezP-yHLrGy-13" target="f8uX8n9HvfezP-yHLrGy-15" edge="1">
          <mxGeometry relative="1" as="geometry" />
        </mxCell>
        <mxCell id="f8uX8n9HvfezP-yHLrGy-18" value="" style="rounded=0;orthogonalLoop=1;jettySize=auto;html=1;entryX=1;entryY=0.5;entryDx=0;entryDy=0;" parent="1" source="f8uX8n9HvfezP-yHLrGy-13" target="f8uX8n9HvfezP-yHLrGy-17" edge="1">
          <mxGeometry relative="1" as="geometry" />
        </mxCell>
        <mxCell id="f8uX8n9HvfezP-yHLrGy-13" value="Train" style="whiteSpace=wrap;html=1;rounded=0;fillColor=#dae8fc;strokeColor=#6c8ebf;gradientColor=#7ea6e0;" parent="1" vertex="1">
          <mxGeometry x="720" y="240" width="120" height="60" as="geometry" />
        </mxCell>
        <mxCell id="f8uX8n9HvfezP-yHLrGy-22" value="" style="rounded=0;orthogonalLoop=1;jettySize=auto;html=1;entryX=0.5;entryY=0;entryDx=0;entryDy=0;" parent="1" source="f8uX8n9HvfezP-yHLrGy-15" target="H812tD_r6ef0jj8ggqGE-34" edge="1">
          <mxGeometry relative="1" as="geometry">
            <mxPoint x="777" y="470" as="targetPoint" />
          </mxGeometry>
        </mxCell>
        <mxCell id="f8uX8n9HvfezP-yHLrGy-15" value="Train_reviews" style="rhombus;whiteSpace=wrap;html=1;rounded=0;fillColor=#cdeb8b;strokeColor=#36393d;" parent="1" vertex="1">
          <mxGeometry x="730" y="340" width="100" height="100" as="geometry" />
        </mxCell>
        <mxCell id="f8uX8n9HvfezP-yHLrGy-28" value="" style="rounded=0;orthogonalLoop=1;jettySize=auto;html=1;entryX=0.5;entryY=1;entryDx=0;entryDy=0;exitX=0;exitY=0.5;exitDx=0;exitDy=0;" parent="1" source="f8uX8n9HvfezP-yHLrGy-17" target="f8uX8n9HvfezP-yHLrGy-27" edge="1">
          <mxGeometry relative="1" as="geometry">
            <mxPoint x="456.00000000000045" y="110" as="sourcePoint" />
          </mxGeometry>
        </mxCell>
        <mxCell id="f8uX8n9HvfezP-yHLrGy-17" value="traveler&lt;br&gt;details" style="rhombus;whiteSpace=wrap;html=1;rounded=0;rotation=45;fillColor=#cdeb8b;strokeColor=#36393d;" parent="1" vertex="1">
          <mxGeometry x="610" y="100" width="80" height="80" as="geometry" />
        </mxCell>
        <mxCell id="f8uX8n9HvfezP-yHLrGy-24" value="Issue" style="shape=ext;margin=3;double=1;whiteSpace=wrap;html=1;align=center;rounded=0;fillColor=#dae8fc;strokeColor=#6c8ebf;gradientColor=#7ea6e0;" parent="1" vertex="1">
          <mxGeometry x="-100" y="550" width="120" height="60" as="geometry" />
        </mxCell>
        <mxCell id="f8uX8n9HvfezP-yHLrGy-27" value="Travelling_Details" style="whiteSpace=wrap;html=1;rounded=0;fillColor=#dae8fc;strokeColor=#6c8ebf;gradientColor=#7ea6e0;" parent="1" vertex="1">
          <mxGeometry x="500" y="-10" width="120" height="60" as="geometry" />
        </mxCell>
        <mxCell id="H812tD_r6ef0jj8ggqGE-10" style="edgeStyle=none;rounded=0;orthogonalLoop=1;jettySize=auto;html=1;exitX=0.5;exitY=1;exitDx=0;exitDy=0;entryX=0.25;entryY=0;entryDx=0;entryDy=0;" parent="1" source="H812tD_r6ef0jj8ggqGE-2" target="f8uX8n9HvfezP-yHLrGy-2" edge="1">
          <mxGeometry relative="1" as="geometry" />
        </mxCell>
        <mxCell id="H812tD_r6ef0jj8ggqGE-2" value="&lt;u&gt;Email&lt;/u&gt;" style="ellipse;whiteSpace=wrap;html=1;align=center;rounded=0;gradientColor=#ffd966;fillColor=#fff2cc;strokeColor=#d6b656;" parent="1" vertex="1">
          <mxGeometry x="-250" y="150" width="100" height="40" as="geometry" />
        </mxCell>
        <mxCell id="H812tD_r6ef0jj8ggqGE-8" value="" style="edgeStyle=none;rounded=0;orthogonalLoop=1;jettySize=auto;html=1;" parent="1" source="H812tD_r6ef0jj8ggqGE-3" target="f8uX8n9HvfezP-yHLrGy-2" edge="1">
          <mxGeometry relative="1" as="geometry" />
        </mxCell>
        <mxCell id="H812tD_r6ef0jj8ggqGE-3" value="Name" style="ellipse;whiteSpace=wrap;html=1;align=center;rounded=0;gradientColor=#ffd966;fillColor=#fff2cc;strokeColor=#d6b656;" parent="1" vertex="1">
          <mxGeometry x="-360" y="200" width="100" height="40" as="geometry" />
        </mxCell>
        <mxCell id="H812tD_r6ef0jj8ggqGE-11" style="edgeStyle=none;rounded=0;orthogonalLoop=1;jettySize=auto;html=1;exitX=1;exitY=0;exitDx=0;exitDy=0;entryX=0;entryY=0.75;entryDx=0;entryDy=0;" parent="1" source="H812tD_r6ef0jj8ggqGE-4" target="f8uX8n9HvfezP-yHLrGy-2" edge="1">
          <mxGeometry relative="1" as="geometry" />
        </mxCell>
        <mxCell id="H812tD_r6ef0jj8ggqGE-4" value="Phone_number" style="ellipse;whiteSpace=wrap;html=1;align=center;rounded=0;gradientColor=#ffd966;fillColor=#fff2cc;strokeColor=#d6b656;" parent="1" vertex="1">
          <mxGeometry x="-340" y="280" width="100" height="40" as="geometry" />
        </mxCell>
        <mxCell id="H812tD_r6ef0jj8ggqGE-12" style="edgeStyle=none;rounded=0;orthogonalLoop=1;jettySize=auto;html=1;exitX=0.5;exitY=0;exitDx=0;exitDy=0;entryX=0.25;entryY=1;entryDx=0;entryDy=0;" parent="1" source="H812tD_r6ef0jj8ggqGE-6" target="f8uX8n9HvfezP-yHLrGy-2" edge="1">
          <mxGeometry relative="1" as="geometry" />
        </mxCell>
        <mxCell id="H812tD_r6ef0jj8ggqGE-6" value="Password" style="ellipse;whiteSpace=wrap;html=1;align=center;rounded=0;gradientColor=#ffd966;fillColor=#fff2cc;strokeColor=#d6b656;" parent="1" vertex="1">
          <mxGeometry x="-260" y="350" width="100" height="40" as="geometry" />
        </mxCell>
        <mxCell id="H812tD_r6ef0jj8ggqGE-15" style="edgeStyle=none;rounded=0;orthogonalLoop=1;jettySize=auto;html=1;exitX=0.5;exitY=1;exitDx=0;exitDy=0;entryX=0.25;entryY=0;entryDx=0;entryDy=0;" parent="1" source="H812tD_r6ef0jj8ggqGE-13" target="f8uX8n9HvfezP-yHLrGy-5" edge="1">
          <mxGeometry relative="1" as="geometry" />
        </mxCell>
        <mxCell id="H812tD_r6ef0jj8ggqGE-13" value="&lt;u&gt;Email&lt;/u&gt;" style="ellipse;whiteSpace=wrap;html=1;align=center;rounded=0;gradientColor=#ffd966;fillColor=#fff2cc;strokeColor=#d6b656;" parent="1" vertex="1">
          <mxGeometry x="51" y="-190" width="100" height="40" as="geometry" />
        </mxCell>
        <mxCell id="H812tD_r6ef0jj8ggqGE-16" style="edgeStyle=none;rounded=0;orthogonalLoop=1;jettySize=auto;html=1;exitX=0.5;exitY=1;exitDx=0;exitDy=0;entryX=0.75;entryY=0;entryDx=0;entryDy=0;" parent="1" source="H812tD_r6ef0jj8ggqGE-14" target="f8uX8n9HvfezP-yHLrGy-5" edge="1">
          <mxGeometry relative="1" as="geometry" />
        </mxCell>
        <mxCell id="H812tD_r6ef0jj8ggqGE-14" value="Password" style="ellipse;whiteSpace=wrap;html=1;align=center;rounded=0;gradientColor=#ffd966;fillColor=#fff2cc;strokeColor=#d6b656;" parent="1" vertex="1">
          <mxGeometry x="181" y="-190" width="100" height="40" as="geometry" />
        </mxCell>
        <mxCell id="H812tD_r6ef0jj8ggqGE-20" style="edgeStyle=none;rounded=0;orthogonalLoop=1;jettySize=auto;html=1;exitX=1;exitY=0;exitDx=0;exitDy=0;" parent="1" source="H812tD_r6ef0jj8ggqGE-17" target="f8uX8n9HvfezP-yHLrGy-24" edge="1">
          <mxGeometry relative="1" as="geometry" />
        </mxCell>
        <mxCell id="H812tD_r6ef0jj8ggqGE-17" value="&lt;u&gt;Email&lt;/u&gt;" style="ellipse;whiteSpace=wrap;html=1;align=center;rounded=0;gradientColor=#ffd966;fillColor=#fff2cc;strokeColor=#d6b656;" parent="1" vertex="1">
          <mxGeometry x="-205" y="650" width="100" height="40" as="geometry" />
        </mxCell>
        <mxCell id="H812tD_r6ef0jj8ggqGE-21" style="edgeStyle=none;rounded=0;orthogonalLoop=1;jettySize=auto;html=1;exitX=0.5;exitY=0;exitDx=0;exitDy=0;" parent="1" source="H812tD_r6ef0jj8ggqGE-18" target="f8uX8n9HvfezP-yHLrGy-24" edge="1">
          <mxGeometry relative="1" as="geometry" />
        </mxCell>
        <mxCell id="H812tD_r6ef0jj8ggqGE-18" value="Problem" style="ellipse;whiteSpace=wrap;html=1;align=center;rounded=0;gradientColor=#ffd966;fillColor=#fff2cc;strokeColor=#d6b656;" parent="1" vertex="1">
          <mxGeometry x="-90" y="650" width="100" height="40" as="geometry" />
        </mxCell>
        <mxCell id="H812tD_r6ef0jj8ggqGE-22" style="edgeStyle=none;rounded=0;orthogonalLoop=1;jettySize=auto;html=1;exitX=0;exitY=0;exitDx=0;exitDy=0;entryX=0.75;entryY=1;entryDx=0;entryDy=0;" parent="1" source="H812tD_r6ef0jj8ggqGE-19" target="f8uX8n9HvfezP-yHLrGy-24" edge="1">
          <mxGeometry relative="1" as="geometry" />
        </mxCell>
        <mxCell id="H812tD_r6ef0jj8ggqGE-19" value="Solution" style="ellipse;whiteSpace=wrap;html=1;align=center;rounded=0;gradientColor=#ffd966;fillColor=#fff2cc;strokeColor=#d6b656;" parent="1" vertex="1">
          <mxGeometry x="25" y="650" width="100" height="40" as="geometry" />
        </mxCell>
        <mxCell id="H812tD_r6ef0jj8ggqGE-30" style="edgeStyle=none;rounded=0;orthogonalLoop=1;jettySize=auto;html=1;exitX=1;exitY=1;exitDx=0;exitDy=0;entryX=1;entryY=0.75;entryDx=0;entryDy=0;" parent="1" target="f8uX8n9HvfezP-yHLrGy-13" edge="1">
          <mxGeometry relative="1" as="geometry">
            <mxPoint x="975.3553390593038" y="314.14213562372197" as="sourcePoint" />
            <mxPoint x="850" y="230" as="targetPoint" />
          </mxGeometry>
        </mxCell>
        <mxCell id="H812tD_r6ef0jj8ggqGE-25" value="&lt;u&gt;Trainnumber&lt;/u&gt;" style="ellipse;whiteSpace=wrap;html=1;align=center;rounded=0;gradientColor=#ffd966;fillColor=#fff2cc;strokeColor=#d6b656;" parent="1" vertex="1">
          <mxGeometry x="973" y="300" width="100" height="40" as="geometry" />
        </mxCell>
        <mxCell id="H812tD_r6ef0jj8ggqGE-31" style="edgeStyle=none;rounded=0;orthogonalLoop=1;jettySize=auto;html=1;exitX=0.5;exitY=1;exitDx=0;exitDy=0;entryX=0.75;entryY=1;entryDx=0;entryDy=0;" parent="1" target="f8uX8n9HvfezP-yHLrGy-13" edge="1">
          <mxGeometry relative="1" as="geometry">
            <mxPoint x="937" y="370" as="sourcePoint" />
          </mxGeometry>
        </mxCell>
        <mxCell id="H812tD_r6ef0jj8ggqGE-26" value="Train Name&lt;span style=&quot;color: rgba(0 , 0 , 0 , 0) ; font-family: monospace ; font-size: 0px&quot;&gt;%3CmxGraphModel%3E%3Croot%3E%3CmxCell%20id%3D%220%22%2F%3E%3CmxCell%20id%3D%221%22%20parent%3D%220%22%2F%3E%3CmxCell%20id%3D%222%22%20value%3D%22Password%22%20style%3D%22ellipse%3BwhiteSpace%3Dwrap%3Bhtml%3D1%3Balign%3Dcenter%3Brounded%3D0%3B%22%20vertex%3D%221%22%20parent%3D%221%22%3E%3CmxGeometry%20x%3D%22140%22%20y%3D%22-60%22%20width%3D%22100%22%20height%3D%2240%22%20as%3D%22geometry%22%2F%3E%3C%2FmxCell%3E%3C%2Froot%3E%3C%2FmxGraphModel%3E&lt;/span&gt;&lt;span style=&quot;color: rgba(0 , 0 , 0 , 0) ; font-family: monospace ; font-size: 0px&quot;&gt;%3CmxGraphModel%3E%3Croot%3E%3CmxCell%20id%3D%220%22%2F%3E%3CmxCell%20id%3D%221%22%20parent%3D%220%22%2F%3E%3CmxCell%20id%3D%222%22%20value%3D%22Password%22%20style%3D%22ellipse%3BwhiteSpace%3Dwrap%3Bhtml%3D1%3Balign%3Dcenter%3Brounded%3D0%3B%22%20vertex%3D%221%22%20parent%3D%221%22%3E%3CmxGeometry%20x%3D%22140%22%20y%3D%22-60%22%20width%3D%22100%22%20height%3D%2240%22%20as%3D%22geometry%22%2F%3E%3C%2FmxCell%3E%3C%2Froot%3E%3C%2FmxGraphModel%3E&lt;/span&gt;" style="ellipse;whiteSpace=wrap;html=1;align=center;rounded=0;gradientColor=#ffd966;fillColor=#fff2cc;strokeColor=#d6b656;" parent="1" vertex="1">
          <mxGeometry x="933" y="360" width="100" height="40" as="geometry" />
        </mxCell>
        <mxCell id="H812tD_r6ef0jj8ggqGE-32" style="edgeStyle=none;rounded=0;orthogonalLoop=1;jettySize=auto;html=1;exitX=0;exitY=1;exitDx=0;exitDy=0;entryX=1;entryY=0.25;entryDx=0;entryDy=0;" parent="1" source="H812tD_r6ef0jj8ggqGE-27" target="f8uX8n9HvfezP-yHLrGy-13" edge="1">
          <mxGeometry relative="1" as="geometry">
            <mxPoint x="790" y="170" as="targetPoint" />
          </mxGeometry>
        </mxCell>
        <mxCell id="H812tD_r6ef0jj8ggqGE-27" value="Arrives" style="ellipse;whiteSpace=wrap;html=1;align=center;rounded=0;gradientColor=#ffd966;fillColor=#fff2cc;strokeColor=#d6b656;" parent="1" vertex="1">
          <mxGeometry x="903" y="180" width="100" height="40" as="geometry" />
        </mxCell>
        <mxCell id="H812tD_r6ef0jj8ggqGE-33" style="edgeStyle=none;rounded=0;orthogonalLoop=1;jettySize=auto;html=1;exitX=0;exitY=1;exitDx=0;exitDy=0;entryX=1;entryY=0.5;entryDx=0;entryDy=0;" parent="1" target="f8uX8n9HvfezP-yHLrGy-13" edge="1">
          <mxGeometry relative="1" as="geometry">
            <mxPoint x="904.6446609406948" y="264.14213562372197" as="sourcePoint" />
          </mxGeometry>
        </mxCell>
        <mxCell id="H812tD_r6ef0jj8ggqGE-28" value="Departs" style="ellipse;whiteSpace=wrap;html=1;align=center;rounded=0;gradientColor=#ffd966;fillColor=#fff2cc;strokeColor=#d6b656;" parent="1" vertex="1">
          <mxGeometry x="903" y="240" width="100" height="40" as="geometry" />
        </mxCell>
        <mxCell id="H812tD_r6ef0jj8ggqGE-34" value="Train_Review" style="shape=ext;margin=3;double=1;whiteSpace=wrap;html=1;align=center;rounded=0;fillColor=#dae8fc;strokeColor=#6c8ebf;gradientColor=#7ea6e0;" parent="1" vertex="1">
          <mxGeometry x="715" y="480" width="130" height="60" as="geometry" />
        </mxCell>
        <mxCell id="H812tD_r6ef0jj8ggqGE-39" style="edgeStyle=none;rounded=0;orthogonalLoop=1;jettySize=auto;html=1;exitX=1;exitY=0;exitDx=0;exitDy=0;entryX=0.25;entryY=1;entryDx=0;entryDy=0;" parent="1" source="H812tD_r6ef0jj8ggqGE-35" target="H812tD_r6ef0jj8ggqGE-34" edge="1">
          <mxGeometry relative="1" as="geometry" />
        </mxCell>
        <mxCell id="H812tD_r6ef0jj8ggqGE-35" value="&lt;u&gt;Trainnumber&lt;/u&gt;" style="ellipse;whiteSpace=wrap;html=1;align=center;rounded=0;gradientColor=#ffd966;fillColor=#fff2cc;strokeColor=#d6b656;" parent="1" vertex="1">
          <mxGeometry x="650" y="570" width="100" height="40" as="geometry" />
        </mxCell>
        <mxCell id="H812tD_r6ef0jj8ggqGE-41" style="edgeStyle=none;rounded=0;orthogonalLoop=1;jettySize=auto;html=1;exitX=0.5;exitY=0;exitDx=0;exitDy=0;entryX=0.5;entryY=1;entryDx=0;entryDy=0;" parent="1" source="H812tD_r6ef0jj8ggqGE-36" target="H812tD_r6ef0jj8ggqGE-34" edge="1">
          <mxGeometry relative="1" as="geometry">
            <mxPoint x="780.2857142857147" y="550" as="targetPoint" />
          </mxGeometry>
        </mxCell>
        <mxCell id="H812tD_r6ef0jj8ggqGE-36" value="Rating" style="ellipse;whiteSpace=wrap;html=1;align=center;rounded=0;gradientColor=#ffd966;fillColor=#fff2cc;strokeColor=#d6b656;" parent="1" vertex="1">
          <mxGeometry x="730" y="610" width="100" height="40" as="geometry" />
        </mxCell>
        <mxCell id="H812tD_r6ef0jj8ggqGE-40" style="edgeStyle=none;rounded=0;orthogonalLoop=1;jettySize=auto;html=1;exitX=0;exitY=0;exitDx=0;exitDy=0;entryX=0.75;entryY=1;entryDx=0;entryDy=0;" parent="1" source="H812tD_r6ef0jj8ggqGE-37" target="H812tD_r6ef0jj8ggqGE-34" edge="1">
          <mxGeometry relative="1" as="geometry" />
        </mxCell>
        <mxCell id="H812tD_r6ef0jj8ggqGE-37" value="Comment" style="ellipse;whiteSpace=wrap;html=1;align=center;rounded=0;gradientColor=#ffd966;fillColor=#fff2cc;strokeColor=#d6b656;" parent="1" vertex="1">
          <mxGeometry x="810" y="570" width="100" height="40" as="geometry" />
        </mxCell>
        <mxCell id="H812tD_r6ef0jj8ggqGE-59" style="edgeStyle=none;rounded=0;orthogonalLoop=1;jettySize=auto;html=1;exitX=1;exitY=1;exitDx=0;exitDy=0;entryX=0.5;entryY=0;entryDx=0;entryDy=0;" parent="1" source="H812tD_r6ef0jj8ggqGE-43" target="f8uX8n9HvfezP-yHLrGy-27" edge="1">
          <mxGeometry relative="1" as="geometry" />
        </mxCell>
        <mxCell id="H812tD_r6ef0jj8ggqGE-43" value="&lt;u&gt;Email&lt;/u&gt;" style="ellipse;whiteSpace=wrap;html=1;align=center;rounded=0;fillColor=#fff2cc;strokeColor=#d6b656;gradientColor=#ffd966;" parent="1" vertex="1">
          <mxGeometry x="326" y="-120" width="100" height="40" as="geometry" />
        </mxCell>
        <mxCell id="H812tD_r6ef0jj8ggqGE-58" style="edgeStyle=none;rounded=0;orthogonalLoop=1;jettySize=auto;html=1;exitX=1;exitY=1;exitDx=0;exitDy=0;entryX=0.25;entryY=0;entryDx=0;entryDy=0;" parent="1" source="H812tD_r6ef0jj8ggqGE-44" target="f8uX8n9HvfezP-yHLrGy-27" edge="1">
          <mxGeometry relative="1" as="geometry" />
        </mxCell>
        <mxCell id="H812tD_r6ef0jj8ggqGE-44" value="&lt;u&gt;Trainnumber&lt;/u&gt;" style="ellipse;whiteSpace=wrap;html=1;align=center;rounded=0;fillColor=#fff2cc;strokeColor=#d6b656;gradientColor=#ffd966;" parent="1" vertex="1">
          <mxGeometry x="266" y="-80" width="100" height="40" as="geometry" />
        </mxCell>
        <mxCell id="H812tD_r6ef0jj8ggqGE-62" style="edgeStyle=none;rounded=0;orthogonalLoop=1;jettySize=auto;html=1;exitX=0;exitY=0.5;exitDx=0;exitDy=0;entryX=1;entryY=0.75;entryDx=0;entryDy=0;" parent="1" source="H812tD_r6ef0jj8ggqGE-45" target="f8uX8n9HvfezP-yHLrGy-27" edge="1">
          <mxGeometry relative="1" as="geometry">
            <mxPoint x="660" y="35" as="targetPoint" />
          </mxGeometry>
        </mxCell>
        <mxCell id="H812tD_r6ef0jj8ggqGE-45" value="Date" style="ellipse;whiteSpace=wrap;html=1;align=center;rounded=0;fillColor=#fff2cc;strokeColor=#d6b656;gradientColor=#ffd966;" parent="1" vertex="1">
          <mxGeometry x="720" y="-20" width="100" height="40" as="geometry" />
        </mxCell>
        <mxCell id="H812tD_r6ef0jj8ggqGE-60" style="edgeStyle=none;rounded=0;orthogonalLoop=1;jettySize=auto;html=1;exitX=0.5;exitY=1;exitDx=0;exitDy=0;entryX=1;entryY=0;entryDx=0;entryDy=0;" parent="1" source="H812tD_r6ef0jj8ggqGE-46" target="f8uX8n9HvfezP-yHLrGy-27" edge="1">
          <mxGeometry relative="1" as="geometry">
            <mxPoint x="623.7600000000002" y="-12.33999999999969" as="targetPoint" />
          </mxGeometry>
        </mxCell>
        <mxCell id="H812tD_r6ef0jj8ggqGE-46" value="Station" style="ellipse;whiteSpace=wrap;html=1;align=center;rounded=0;fillColor=#fff2cc;strokeColor=#d6b656;gradientColor=#ffd966;" parent="1" vertex="1">
          <mxGeometry x="610" y="-120" width="100" height="40" as="geometry" />
        </mxCell>
        <mxCell id="H812tD_r6ef0jj8ggqGE-66" style="edgeStyle=none;rounded=0;orthogonalLoop=1;jettySize=auto;html=1;exitX=0.5;exitY=1;exitDx=0;exitDy=0;entryX=0.5;entryY=0;entryDx=0;entryDy=0;" parent="1" source="H812tD_r6ef0jj8ggqGE-47" target="H812tD_r6ef0jj8ggqGE-46" edge="1">
          <mxGeometry relative="1" as="geometry" />
        </mxCell>
        <mxCell id="H812tD_r6ef0jj8ggqGE-68" style="edgeStyle=none;rounded=0;orthogonalLoop=1;jettySize=auto;html=1;" parent="1" source="H812tD_r6ef0jj8ggqGE-47" target="H812tD_r6ef0jj8ggqGE-46" edge="1">
          <mxGeometry relative="1" as="geometry" />
        </mxCell>
        <mxCell id="H812tD_r6ef0jj8ggqGE-47" value="Destination" style="ellipse;whiteSpace=wrap;html=1;align=center;rounded=0;fillColor=#fff2cc;strokeColor=#d6b656;gradientColor=#ffd966;" parent="1" vertex="1">
          <mxGeometry x="610" y="-190" width="100" height="40" as="geometry" />
        </mxCell>
        <mxCell id="H812tD_r6ef0jj8ggqGE-65" style="edgeStyle=none;rounded=0;orthogonalLoop=1;jettySize=auto;html=1;exitX=0;exitY=1;exitDx=0;exitDy=0;entryX=1;entryY=0;entryDx=0;entryDy=0;" parent="1" source="H812tD_r6ef0jj8ggqGE-48" target="H812tD_r6ef0jj8ggqGE-46" edge="1">
          <mxGeometry relative="1" as="geometry" />
        </mxCell>
        <mxCell id="H812tD_r6ef0jj8ggqGE-48" value="Boarding" style="ellipse;whiteSpace=wrap;html=1;align=center;rounded=0;fillColor=#fff2cc;strokeColor=#d6b656;gradientColor=#ffd966;" parent="1" vertex="1">
          <mxGeometry x="730" y="-170" width="100" height="40" as="geometry" />
        </mxCell>
        <mxCell id="H812tD_r6ef0jj8ggqGE-61" style="edgeStyle=none;rounded=0;orthogonalLoop=1;jettySize=auto;html=1;exitX=0;exitY=1;exitDx=0;exitDy=0;entryX=1;entryY=0.5;entryDx=0;entryDy=0;" parent="1" source="H812tD_r6ef0jj8ggqGE-49" target="f8uX8n9HvfezP-yHLrGy-27" edge="1">
          <mxGeometry relative="1" as="geometry">
            <mxPoint x="660" y="-10" as="targetPoint" />
          </mxGeometry>
        </mxCell>
        <mxCell id="H812tD_r6ef0jj8ggqGE-49" value="Seat Details" style="ellipse;whiteSpace=wrap;html=1;align=center;rounded=0;fillColor=#fff2cc;strokeColor=#d6b656;gradientColor=#ffd966;" parent="1" vertex="1">
          <mxGeometry x="680" y="-70" width="100" height="40" as="geometry" />
        </mxCell>
        <mxCell id="H812tD_r6ef0jj8ggqGE-64" style="edgeStyle=none;rounded=0;orthogonalLoop=1;jettySize=auto;html=1;exitX=0;exitY=0.5;exitDx=0;exitDy=0;entryX=1;entryY=0;entryDx=0;entryDy=0;" parent="1" source="H812tD_r6ef0jj8ggqGE-50" target="H812tD_r6ef0jj8ggqGE-49" edge="1">
          <mxGeometry relative="1" as="geometry" />
        </mxCell>
        <mxCell id="H812tD_r6ef0jj8ggqGE-50" value="Seat number" style="ellipse;whiteSpace=wrap;html=1;align=center;rounded=0;fillColor=#fff2cc;strokeColor=#d6b656;gradientColor=#ffd966;" parent="1" vertex="1">
          <mxGeometry x="810" y="-120" width="100" height="40" as="geometry" />
        </mxCell>
        <mxCell id="H812tD_r6ef0jj8ggqGE-63" style="edgeStyle=none;rounded=0;orthogonalLoop=1;jettySize=auto;html=1;exitX=0;exitY=0.5;exitDx=0;exitDy=0;entryX=0.949;entryY=0.753;entryDx=0;entryDy=0;entryPerimeter=0;" parent="1" source="H812tD_r6ef0jj8ggqGE-51" target="H812tD_r6ef0jj8ggqGE-49" edge="1">
          <mxGeometry relative="1" as="geometry" />
        </mxCell>
        <mxCell id="H812tD_r6ef0jj8ggqGE-51" value="Car" style="ellipse;whiteSpace=wrap;html=1;align=center;rounded=0;fillColor=#fff2cc;strokeColor=#d6b656;gradientColor=#ffd966;" parent="1" vertex="1">
          <mxGeometry x="820" y="-50" width="100" height="40" as="geometry" />
        </mxCell>
        <mxCell id="o1f8s7yUzRyvdQg7i0tU-3" value="" style="edgeStyle=orthogonalEdgeStyle;rounded=0;orthogonalLoop=1;jettySize=auto;html=1;" parent="1" source="H812tD_r6ef0jj8ggqGE-55" target="o1f8s7yUzRyvdQg7i0tU-1" edge="1">
          <mxGeometry relative="1" as="geometry" />
        </mxCell>
        <mxCell id="H812tD_r6ef0jj8ggqGE-55" value="Food" style="rhombus;whiteSpace=wrap;html=1;rounded=0;fillColor=#cdeb8b;strokeColor=#36393d;" parent="1" vertex="1">
          <mxGeometry x="-170" y="-20" width="80" height="80" as="geometry" />
        </mxCell>
        <mxCell id="H812tD_r6ef0jj8ggqGE-69" style="edgeStyle=none;rounded=0;orthogonalLoop=1;jettySize=auto;html=1;exitX=1;exitY=0;exitDx=0;exitDy=0;" parent="1" edge="1">
          <mxGeometry relative="1" as="geometry">
            <mxPoint x="643.3205080756888" y="125.1794919243116" as="sourcePoint" />
            <mxPoint x="643.3205080756888" y="125.1794919243116" as="targetPoint" />
          </mxGeometry>
        </mxCell>
        <mxCell id="o1f8s7yUzRyvdQg7i0tU-1" value="E_Food" style="whiteSpace=wrap;html=1;rounded=0;fillColor=#dae8fc;strokeColor=#6c8ebf;gradientColor=#7ea6e0;" parent="1" vertex="1">
          <mxGeometry x="-190" y="-120" width="120" height="60" as="geometry" />
        </mxCell>
        <mxCell id="o1f8s7yUzRyvdQg7i0tU-8" style="rounded=0;orthogonalLoop=1;jettySize=auto;html=1;exitX=1;exitY=1;exitDx=0;exitDy=0;entryX=0.25;entryY=0;entryDx=0;entryDy=0;" parent="1" source="o1f8s7yUzRyvdQg7i0tU-5" target="o1f8s7yUzRyvdQg7i0tU-1" edge="1">
          <mxGeometry relative="1" as="geometry" />
        </mxCell>
        <mxCell id="o1f8s7yUzRyvdQg7i0tU-5" value="&lt;u&gt;StationCode&lt;/u&gt;" style="ellipse;whiteSpace=wrap;html=1;align=center;rounded=0;gradientColor=#ffd966;fillColor=#fff2cc;strokeColor=#d6b656;" parent="1" vertex="1">
          <mxGeometry x="-260" y="-180" width="100" height="40" as="geometry" />
        </mxCell>
        <mxCell id="o1f8s7yUzRyvdQg7i0tU-9" style="rounded=0;orthogonalLoop=1;jettySize=auto;html=1;exitX=0;exitY=1;exitDx=0;exitDy=0;entryX=0.439;entryY=0.002;entryDx=0;entryDy=0;entryPerimeter=0;" parent="1" source="o1f8s7yUzRyvdQg7i0tU-6" edge="1">
          <mxGeometry relative="1" as="geometry">
            <mxPoint x="-102.31999999999994" y="-120.00000000000011" as="targetPoint" />
          </mxGeometry>
        </mxCell>
        <mxCell id="o1f8s7yUzRyvdQg7i0tU-6" value="StationName" style="ellipse;whiteSpace=wrap;html=1;align=center;rounded=0;gradientColor=#ffd966;fillColor=#fff2cc;strokeColor=#d6b656;" parent="1" vertex="1">
          <mxGeometry x="-105" y="-180.12" width="100" height="40" as="geometry" />
        </mxCell>
        <mxCell id="JJtEecYsd-hAWvYuLGRU-5" style="edgeStyle=none;rounded=0;orthogonalLoop=1;jettySize=auto;html=1;exitX=0.5;exitY=1;exitDx=0;exitDy=0;entryX=0.75;entryY=0;entryDx=0;entryDy=0;" parent="1" source="JJtEecYsd-hAWvYuLGRU-2" target="f8uX8n9HvfezP-yHLrGy-27" edge="1">
          <mxGeometry relative="1" as="geometry" />
        </mxCell>
        <mxCell id="JJtEecYsd-hAWvYuLGRU-2" value="Name" style="ellipse;whiteSpace=wrap;html=1;align=center;rounded=0;gradientColor=#ffd966;fillColor=#fff2cc;strokeColor=#d6b656;" parent="1" vertex="1">
          <mxGeometry x="500" y="-162.5" width="100" height="40" as="geometry" />
        </mxCell>
        <mxCell id="JJtEecYsd-hAWvYuLGRU-4" style="rounded=0;orthogonalLoop=1;jettySize=auto;html=1;exitX=1;exitY=1;exitDx=0;exitDy=0;" parent="1" source="JJtEecYsd-hAWvYuLGRU-3" edge="1">
          <mxGeometry relative="1" as="geometry">
            <mxPoint x="560" y="-12" as="targetPoint" />
          </mxGeometry>
        </mxCell>
        <mxCell id="JJtEecYsd-hAWvYuLGRU-3" value="Phone_number" style="ellipse;whiteSpace=wrap;html=1;align=center;rounded=0;gradientColor=#ffd966;fillColor=#fff2cc;strokeColor=#d6b656;" parent="1" vertex="1">
          <mxGeometry x="386" y="-160" width="100" height="40" as="geometry" />
        </mxCell>
      </root>
    </mxGraphModel>
  </diagram>
  <diagram id="n4i2YaLvHKB1VLOjaUQL" name="ERdraw2">
    
    <mxGraphModel dx="1209" dy="627" grid="1" gridSize="10" guides="1" tooltips="1" connect="1" arrows="1" fold="1" page="1" pageScale="1" pageWidth="827" pageHeight="1169" math="0" shadow="0">
      
      <root>
        
        <mxCell id="GPzs9m-No2sXJ_05k_Kw-0" />
        
        <mxCell id="GPzs9m-No2sXJ_05k_Kw-1" parent="GPzs9m-No2sXJ_05k_Kw-0" />
        
        <mxCell id="GPzs9m-No2sXJ_05k_Kw-2" value="Train" style="whiteSpace=wrap;html=1;align=center;rounded=0;" vertex="1" parent="GPzs9m-No2sXJ_05k_Kw-1">
          
          <mxGeometry x="430" y="220" width="100" height="40" as="geometry" />
          
        </mxCell>
        
        <mxCell id="GPzs9m-No2sXJ_05k_Kw-19" value="" style="edgeStyle=orthogonalEdgeStyle;rounded=0;orthogonalLoop=1;jettySize=auto;html=1;" edge="1" parent="GPzs9m-No2sXJ_05k_Kw-1" source="GPzs9m-No2sXJ_05k_Kw-3" target="GPzs9m-No2sXJ_05k_Kw-18">
          
          <mxGeometry relative="1" as="geometry" />
          
        </mxCell>
        
        <mxCell id="GPzs9m-No2sXJ_05k_Kw-3" value="profile" style="whiteSpace=wrap;html=1;align=center;rounded=0;" vertex="1" parent="GPzs9m-No2sXJ_05k_Kw-1">
          
          <mxGeometry x="20" y="90" width="100" height="40" as="geometry" />
          
        </mxCell>
        
        <mxCell id="GPzs9m-No2sXJ_05k_Kw-4" value="Login" style="whiteSpace=wrap;html=1;align=center;rounded=0;" vertex="1" parent="GPzs9m-No2sXJ_05k_Kw-1">
          
          <mxGeometry x="330" y="80" width="100" height="40" as="geometry" />
          
        </mxCell>
        
        <mxCell id="GPzs9m-No2sXJ_05k_Kw-6" value="Train_Review" style="whiteSpace=wrap;html=1;align=center;rounded=0;" vertex="1" parent="GPzs9m-No2sXJ_05k_Kw-1">
          
          <mxGeometry x="200" y="340" width="100" height="40" as="geometry" />
          
        </mxCell>
        
        <mxCell id="GPzs9m-No2sXJ_05k_Kw-7" value="Traveler Details" style="whiteSpace=wrap;html=1;align=center;rounded=0;" vertex="1" parent="GPzs9m-No2sXJ_05k_Kw-1">
          
          <mxGeometry x="560" y="290" width="100" height="40" as="geometry" />
          
        </mxCell>
        
        <mxCell id="GPzs9m-No2sXJ_05k_Kw-8" value="Chat_box" style="whiteSpace=wrap;html=1;align=center;rounded=0;" vertex="1" parent="GPzs9m-No2sXJ_05k_Kw-1">
          
          <mxGeometry x="450" y="410" width="100" height="40" as="geometry" />
          
        </mxCell>
        
        <mxCell id="GPzs9m-No2sXJ_05k_Kw-11" value="Issue" style="shape=ext;margin=3;double=1;whiteSpace=wrap;html=1;align=center;rounded=0;" vertex="1" parent="GPzs9m-No2sXJ_05k_Kw-1">
          
          <mxGeometry x="100" y="260" width="100" height="40" as="geometry" />
          
        </mxCell>
        
        <mxCell id="GPzs9m-No2sXJ_05k_Kw-18" value="Login" style="rhombus;whiteSpace=wrap;html=1;rounded=0;" vertex="1" parent="GPzs9m-No2sXJ_05k_Kw-1">
          
          <mxGeometry x="210" y="70" width="80" height="80" as="geometry" />
          
        </mxCell>
        
      </root>
      
    </mxGraphModel>
    
  </diagram>
  <diagram id="Uyg3phUSImP7ong7-3TK" name="Page-3">
    
    <mxGraphModel dx="1209" dy="627" grid="1" gridSize="10" guides="1" tooltips="1" connect="1" arrows="1" fold="1" page="1" pageScale="1" pageWidth="827" pageHeight="1169" math="0" shadow="0">
      
      <root>
        
        <mxCell id="H0KKcduyzce2gERPLFdR-0" />
        
        <mxCell id="H0KKcduyzce2gERPLFdR-1" parent="H0KKcduyzce2gERPLFdR-0" />
        
      </root>
      
    </mxGraphModel>
    
  </diagram>
</mxfile>
